<svg viewBox="0 0 320 320" xmlns="http://www.w3.org/2000/svg">

<g transform="translate(160,120)">
  <!-- head -->
  <path fill="#6a66ff" d="M -96.32593881358233 0   a 96.32593881358233 96.32593881358233 0 0 1 192.65187762716465 0   L 85.93608901715965 100   L 69.58594412002674 140   L 27.28289198701992 180   L -27.28289198701992 180   L -69.58594412002674 140   L -85.93608901715965 100   "/>

  <!-- eye -->
  <path fill="#30346a" d="M 21.29808207314548 40   a 39.8736903773904 39.8736903773904 0 0 1 50 0   a 120 120 0 0 0 -50 0   "/>

  <!-- other eye -->
  <path fill="#30346a" transform="scale(-1,1)" d="M 21.29808207314548 40   a 39.8736903773904 39.8736903773904 0 0 1 50 0   a 120 120 0 0 0 -50 0   "/>

  <!-- eye brow -->
  <path fill="none" stroke="#30346a" stroke-width="5" stroke-linecap="round" stroke-linejoin="bevel" d="M 21.29808207314548 14.226178159220034   L 49.843765295897 7.461008405510574   L 70 19.226178159220034   "/>

  <!-- other eye brow -->
  <path fill="none" stroke="#30346a" stroke-width="5" transform="scale(-1,1)" stroke-linecap="round" stroke-linejoin="bevel" d="M 21.29808207314548 14.226178159220034   L 49.843765295897 12.861171437211134   L 70 19.226178159220034   "/>

  <!-- nose -->
  <path fill="none" stroke="#30346a" stroke-width="5" d="M 0 98.34944119608329   m -5 -5   a 6 6 0 0 0 10 0   m -5 0   a 15 15 0 0 0 20 -2   m -20 2   a 15 15 0 0 1 -20 -2   "/>

  <!-- mouth -->
  <path fill="#30346a" stroke="#30346a" stroke-width="5" stroke-linejoin="miter" d="M 0 132.0190846499182   m -27.36732917198962 0   a 70 70 0 0 0 54.73465834397924 0   a 92.36732917198962 92.36732917198962 0 0 0 -22.36732917198962 -3   l -5 2   l -5 -2   a 92.36732917198962 92.36732917198962 0 0 0 -22.36732917198962 3   a 70 70 0 0 0 54.73465834397924 0   "/>

</g>

</svg>