<svg viewBox="0 0 320 320" xmlns="http://www.w3.org/2000/svg">

<g transform="translate(160,120)">
  <!-- head -->
  <path fill="#657d37" d="M -98.41814683643308 0   a 98.41814683643308 98.41814683643308 0 0 1 196.83629367286616 0   L 83.68123912534548 100   L 73.22528887344635 140   L 22.445728544462156 180   L -22.445728544462156 180   L -73.22528887344635 140   L -83.68123912534548 100   "/>

  <!-- eye -->
  <path fill="#273f17" d="M 24.288403632058277 40   a 36.6739043744217 36.6739043744217 0 0 1 50 0   a 120 120 0 0 1 -50 0   "/>

  <!-- other eye -->
  <path fill="#273f17" transform="scale(-1,1)" d="M 24.288403632058277 40   a 36.6739043744217 36.6739043744217 0 0 1 50 0   a 120 120 0 0 1 -50 0   "/>

  <!-- eye brow -->
  <path fill="none" stroke="#273f17" stroke-width="5" stroke-linecap="round" stroke-linejoin="bevel" d="M 24.288403632058277 13.344663141436463   L 49.54003032978984 6.65012960978742   L 70 13.344663141436463   "/>

  <!-- other eye brow -->
  <path fill="none" stroke="#273f17" stroke-width="5" transform="scale(-1,1)" stroke-linecap="round" stroke-linejoin="bevel" d="M 24.288403632058277 13.344663141436463   L 49.54003032978984 -0.6512960178591789   L 70 13.344663141436463   "/>

  <!-- nose -->
  <path fill="none" stroke="#273f17" stroke-width="5" d="M 0 100.7013943305921   m -5 -5   a 6 6 0 0 0 10 0   m -5 0   a 15 15 0 0 0 20 -2   m -20 2   a 15 15 0 0 1 -20 -2   "/>

  <!-- mouth -->
  <path fill="#273f17" stroke="#273f17" stroke-width="5" stroke-linejoin="miter" d="M 0 130.35100364490677   m -43.62873997900387 0   a 70 70 0 0 0 87.25747995800774 0   a 108.62873997900387 108.62873997900387 0 0 0 -38.62873997900387 -3   l -5 2   l -5 -2   a 108.62873997900387 108.62873997900387 0 0 0 -38.62873997900387 3   a 70 70 0 0 0 87.25747995800774 0   "/>

</g>

</svg>