<svg viewBox="0 0 320 320" xmlns="http://www.w3.org/2000/svg">

<g transform="translate(160,120)">
  <!-- head -->
  <path fill="#6f7279" d="M -101.32090874769 0   a 101.32090874769 101.32090874769 0 0 1 202.64181749538 0   L 83.51339445959758 100   L 67.8967074980921 140   L 21.792999454002132 180   L -21.792999454002132 180   L -67.8967074980921 140   L -83.51339445959758 100   "/>

  <!-- eye -->
  <path fill="#2f383d" d="M 18.740855571002392 40   a 39.2156272191223 39.2156272191223 0 0 1 50 0   a 120 120 0 0 1 -50 0   "/>

  <!-- other eye -->
  <path fill="#2f383d" transform="scale(-1,1)" d="M 18.740855571002392 40   a 39.2156272191223 39.2156272191223 0 0 1 50 0   a 120 120 0 0 1 -50 0   "/>

  <!-- eye brow -->
  <path fill="none" stroke="#2f383d" stroke-width="5" stroke-linecap="round" stroke-linejoin="bevel" d="M 18.740855571002392 16.924484266316675   L 46.69399761719138 4.53151600956622   L 70 16.924484266316675   "/>

  <!-- other eye brow -->
  <path fill="none" stroke="#2f383d" stroke-width="5" transform="scale(-1,1)" stroke-linecap="round" stroke-linejoin="bevel" d="M 18.740855571002392 16.924484266316675   L 46.69399761719138 4.531780174182202   L 70 16.924484266316675   "/>

  <!-- nose -->
  <path fill="none" stroke="#2f383d" stroke-width="5" d="M 0 99.44155951099258   m -5 -5   a 6 6 0 0 0 10 0   m -5 0   a 15 15 0 0 0 20 -2   m -20 2   a 15 15 0 0 1 -20 -2   "/>

  <!-- mouth -->
  <path fill="#2f383d" stroke="#2f383d" stroke-width="5" stroke-linejoin="miter" d="M 0 127.71089779319465   m -28.77589309532643 0   a 70 70 0 0 0 57.55178619065286 0   a 93.77589309532642 93.77589309532642 0 0 0 -23.77589309532643 -3   l -5 2   l -5 -2   a 93.77589309532642 93.77589309532642 0 0 0 -23.77589309532643 3   a 70 70 0 0 0 57.55178619065286 0   "/>

</g>

</svg>