<svg viewBox="0 0 320 320" xmlns="http://www.w3.org/2000/svg">

<g transform="translate(160,120)">
  <!-- head -->
  <path fill="#8c6d5b" d="M -101.00678262111121 0   a 101.00678262111121 101.00678262111121 0 0 1 202.01356524222243 0   L 77.29671237152088 100   L 71.33881502518109 140   L 28.108308930808658 180   L -28.108308930808658 180   L -71.33881502518109 140   L -77.29671237152088 100   "/>

  <!-- eye -->
  <path fill="#4b3132" d="M 19.82862956365409 40   a 36.45584076143133 36.45584076143133 0 0 1 50 0   a 120 120 0 0 0 -50 0   "/>

  <!-- other eye -->
  <path fill="#4b3132" transform="scale(-1,1)" d="M 19.82862956365409 40   a 36.45584076143133 36.45584076143133 0 0 1 50 0   a 120 120 0 0 0 -50 0   "/>

  <!-- eye brow -->
  <path fill="none" stroke="#4b3132" stroke-width="5" stroke-linecap="round" stroke-linejoin="bevel" d="M 19.82862956365409 5.875879986687247   L 45.58930084034747 2.4122226515343996   L 70 10.875879986687247   "/>

  <!-- other eye brow -->
  <path fill="none" stroke="#4b3132" stroke-width="5" transform="scale(-1,1)" stroke-linecap="round" stroke-linejoin="bevel" d="M 19.82862956365409 5.875879986687247   L 45.58930084034747 -1.7959674248744104   L 70 10.875879986687247   "/>

  <!-- nose -->
  <path fill="none" stroke="#4b3132" stroke-width="5" d="M 0 101.02777766660626   m -5 -5   a 6 6 0 0 0 10 0   m -5 0   a 15 15 0 0 0 20 -2   m -20 2   a 15 15 0 0 1 -20 -2   "/>

  <!-- mouth -->
  <path fill="#4b3132" stroke="#4b3132" stroke-width="5" stroke-linejoin="miter" d="M 0 130.1091615315783   m -41.01332662575879 0   a 70 70 0 0 0 82.02665325151759 0   a 106.0133266257588 106.0133266257588 0 0 0 -36.01332662575879 -3   l -5 2   l -5 -2   a 106.0133266257588 106.0133266257588 0 0 0 -36.01332662575879 3   a 70 70 0 0 0 82.02665325151759 0   "/>

</g>

</svg>