<svg viewBox="0 0 320 320" xmlns="http://www.w3.org/2000/svg">

<g transform="translate(160,120)">
  <!-- head -->
  <path fill="#b656ff" d="M -102.29095056989314 0   a 102.29095056989314 102.29095056989314 0 0 1 204.58190113978628 0   L 78.71729806478123 100   L 67.96008537857956 140   L 13.899966048559742 180   L -13.899966048559742 180   L -67.96008537857956 140   L -78.71729806478123 100   "/>

  <!-- eye -->
  <path fill="#482d69" d="M 18.17047528520171 40   a 38.06670330843012 38.06670330843012 0 0 1 50 0   a 120 120 0 0 1 -50 0   "/>

  <!-- other eye -->
  <path fill="#482d69" transform="scale(-1,1)" d="M 18.17047528520171 40   a 38.06670330843012 38.06670330843012 0 0 1 50 0   a 120 120 0 0 1 -50 0   "/>

  <!-- eye brow -->
  <path fill="none" stroke="#482d69" stroke-width="5" stroke-linecap="round" stroke-linejoin="bevel" d="M 18.17047528520171 17.26697243460945   L 51.4165695983546 9.433664065306523   L 70 17.26697243460945   "/>

  <!-- other eye brow -->
  <path fill="none" stroke="#482d69" stroke-width="5" transform="scale(-1,1)" stroke-linecap="round" stroke-linejoin="bevel" d="M 18.17047528520171 17.26697243460945   L 51.4165695983546 9.114096415521605   L 70 17.26697243460945   "/>

  <!-- nose -->
  <path fill="none" stroke="#482d69" stroke-width="5" d="M 0 102.27256864096341   m -5 -5   a 6 6 0 0 0 10 0   m -5 0   a 15 15 0 0 0 20 -2   m -20 2   a 15 15 0 0 1 -20 -2   "/>

  <!-- mouth -->
  <path fill="#482d69" stroke="#482d69" stroke-width="5" stroke-linejoin="miter" d="M 0 130.11850046212123   m -36.00724934303849 0   a 70 70 0 0 0 72.01449868607698 0   a 101.0072493430385 101.0072493430385 0 0 0 -31.007249343038488 -3   l -5 2   l -5 -2   a 101.0072493430385 101.0072493430385 0 0 0 -31.007249343038488 3   a 70 70 0 0 0 72.01449868607698 0   "/>

</g>

</svg>