<svg viewBox="0 0 320 320" xmlns="http://www.w3.org/2000/svg">

<g transform="translate(160,120)">
  <!-- head -->
  <path fill="#68775e" d="M -102.59629298985412 0   a 102.59629298985412 102.59629298985412 0 0 1 205.19258597970824 0   L 81.61144580766215 100   L 69.6662196590426 140   L 27.374939612315163 180   L -27.374939612315163 180   L -69.6662196590426 140   L -81.61144580766215 100   "/>

  <!-- eye -->
  <path fill="#343732" d="M 15.948631849954904 40   a 37.87571350733624 37.87571350733624 0 0 1 50 0   a 120 120 0 0 0 -50 0   "/>

  <!-- other eye -->
  <path fill="#343732" transform="scale(-1,1)" d="M 15.948631849954904 40   a 37.87571350733624 37.87571350733624 0 0 1 50 0   a 120 120 0 0 0 -50 0   "/>

  <!-- eye brow -->
  <path fill="none" stroke="#343732" stroke-width="5" stroke-linecap="round" stroke-linejoin="bevel" d="M 15.948631849954904 11.604213860443851   L 51.79810534391276 7.528490120103129   L 70 16.60421386044385   "/>

  <!-- other eye brow -->
  <path fill="none" stroke="#343732" stroke-width="5" transform="scale(-1,1)" stroke-linecap="round" stroke-linejoin="bevel" d="M 15.948631849954904 11.604213860443851   L 51.79810534391276 6.646272966574218   L 70 16.60421386044385   "/>

  <!-- nose -->
  <path fill="none" stroke="#343732" stroke-width="5" d="M 0 97.57717795643413   m -5 -5   a 6 6 0 0 0 10 0   m -5 0   a 15 15 0 0 0 20 -2   m -20 2   a 15 15 0 0 1 -20 -2   "/>

  <!-- mouth -->
  <path fill="#343732" stroke="#343732" stroke-width="5" stroke-linejoin="miter" d="M 0 130.09651200254575   m -31.03238770928222 0   a 70 70 0 0 0 62.06477541856444 0   a 96.03238770928222 96.03238770928222 0 0 0 -26.03238770928222 -3   l -5 2   l -5 -2   a 96.03238770928222 96.03238770928222 0 0 0 -26.03238770928222 3   a 70 70 0 0 0 62.06477541856444 0   "/>

</g>

</svg>