<svg viewBox="0 0 320 320" xmlns="http://www.w3.org/2000/svg">

<g transform="translate(160,120)">
  <!-- head -->
  <path fill="#a26d32" d="M -96.83027722575139 0   a 96.83027722575139 96.83027722575139 0 0 1 193.66055445150278 0   L 77.57854848071115 100   L 65.8838009987815 140   L 28.85050752341565 180   L -28.85050752341565 180   L -65.8838009987815 140   L -77.57854848071115 100   "/>

  <!-- eye -->
  <path fill="#48341f" d="M 24.482290597681704 40   a 38.333083160137434 38.333083160137434 0 0 1 50 0   a 120 120 0 0 0 -50 0   "/>

  <!-- other eye -->
  <path fill="#48341f" transform="scale(-1,1)" d="M 24.482290597681704 40   a 38.333083160137434 38.333083160137434 0 0 1 50 0   a 120 120 0 0 0 -50 0   "/>

  <!-- eye brow -->
  <path fill="none" stroke="#48341f" stroke-width="5" stroke-linecap="round" stroke-linejoin="bevel" d="M 24.482290597681704 11.628949961793065   L 53.804310968334285 8.810142236468698   L 70 16.628949961793065   "/>

  <!-- other eye brow -->
  <path fill="none" stroke="#48341f" stroke-width="5" transform="scale(-1,1)" stroke-linecap="round" stroke-linejoin="bevel" d="M 24.482290597681704 11.628949961793065   L 53.804310968334285 5.5975061749994115   L 70 16.628949961793065   "/>

  <!-- nose -->
  <path fill="none" stroke="#48341f" stroke-width="5" d="M 0 98.10172543247234   m -5 -5   a 6 6 0 0 0 10 0   m -5 0   a 15 15 0 0 0 20 -2   m -20 2   a 15 15 0 0 1 -20 -2   "/>

  <!-- mouth -->
  <path fill="#48341f" stroke="#48341f" stroke-width="5" stroke-linejoin="miter" d="M 0 127.85243340330888   m -31.005416513473723 0   a 70 70 0 0 0 62.010833026947445 0   a 96.00541651347372 96.00541651347372 0 0 0 -26.005416513473723 -3   l -5 2   l -5 -2   a 96.00541651347372 96.00541651347372 0 0 0 -26.005416513473723 3   a 70 70 0 0 0 62.010833026947445 0   "/>

</g>

</svg>