<svg viewBox="0 0 320 320" xmlns="http://www.w3.org/2000/svg">

<g transform="translate(160,120)">
  <!-- head -->
  <path fill="#f35392" d="M -95.51267621115582 0   a 95.51267621115582 95.51267621115582 0 0 1 191.02535242231164 0   L 80.03673536070696 100   L 67.69324378606208 140   L 24.582013375245147 180   L -24.582013375245147 180   L -67.69324378606208 140   L -80.03673536070696 100   "/>

  <!-- eye -->
  <path fill="#622d27" d="M 22.924099565806216 40   a 38.051625028457856 38.051625028457856 0 0 1 50 0   a 120 120 0 0 0 -50 0   "/>

  <!-- other eye -->
  <path fill="#622d27" transform="scale(-1,1)" d="M 22.924099565806216 40   a 38.051625028457856 38.051625028457856 0 0 1 50 0   a 120 120 0 0 0 -50 0   "/>

  <!-- eye brow -->
  <path fill="none" stroke="#622d27" stroke-width="5" stroke-linecap="round" stroke-linejoin="bevel" d="M 22.924099565806216 12.049579675041436   L 49.574745262150316 9.391978570662461   L 70 17.049579675041436   "/>

  <!-- other eye brow -->
  <path fill="none" stroke="#622d27" stroke-width="5" transform="scale(-1,1)" stroke-linecap="round" stroke-linejoin="bevel" d="M 22.924099565806216 12.049579675041436   L 49.574745262150316 3.8058907876089947   L 70 17.049579675041436   "/>

  <!-- nose -->
  <path fill="none" stroke="#622d27" stroke-width="5" d="M 0 100.98847688443105   m -5 -5   a 6 6 0 0 0 10 0   m -5 0   a 15 15 0 0 0 20 -2   m -20 2   a 15 15 0 0 1 -20 -2   "/>

  <!-- mouth -->
  <path fill="#622d27" stroke="#622d27" stroke-width="5" stroke-linejoin="miter" d="M 0 127.71199626230582   m -44.21779704957712 0   a 70 70 0 0 0 88.43559409915424 0   a 109.21779704957711 109.21779704957711 0 0 0 -39.21779704957712 -3   l -5 2   l -5 -2   a 109.21779704957711 109.21779704957711 0 0 0 -39.21779704957712 3   a 70 70 0 0 0 88.43559409915424 0   "/>

</g>

</svg>