<svg viewBox="0 0 320 320" xmlns="http://www.w3.org/2000/svg">

<g transform="translate(160,120)">
  <!-- head -->
  <path fill="#9b6e36" d="M -103.5437271675981 0   a 103.5437271675981 103.5437271675981 0 0 1 207.0874543351962 0   L 85.73211282069933 100   L 65.09887042225564 140   L 25.91647407703133 180   L -25.91647407703133 180   L -65.09887042225564 140   L -85.73211282069933 100   "/>

  <!-- eye -->
  <path fill="#4a341c" d="M 23.229465267535627 40   a 36.850776362450866 36.850776362450866 0 0 1 50 0   a 120 120 0 0 1 -50 0   "/>

  <!-- other eye -->
  <path fill="#4a341c" transform="scale(-1,1)" d="M 23.229465267535627 40   a 36.850776362450866 36.850776362450866 0 0 1 50 0   a 120 120 0 0 1 -50 0   "/>

  <!-- eye brow -->
  <path fill="none" stroke="#4a341c" stroke-width="5" stroke-linecap="round" stroke-linejoin="bevel" d="M 23.229465267535627 10.48617528949599   L 52.29285257796846 0.5055740765324366   L 70 10.48617528949599   "/>

  <!-- other eye brow -->
  <path fill="none" stroke="#4a341c" stroke-width="5" transform="scale(-1,1)" stroke-linecap="round" stroke-linejoin="bevel" d="M 23.229465267535627 10.48617528949599   L 52.29285257796846 -2.9339913143488463   L 70 10.48617528949599   "/>

  <!-- nose -->
  <path fill="none" stroke="#4a341c" stroke-width="5" d="M 0 101.33604278181333   m -5 -5   a 6 6 0 0 0 10 0   m -5 0   a 15 15 0 0 0 20 -2   m -20 2   a 15 15 0 0 1 -20 -2   "/>

  <!-- mouth -->
  <path fill="#4a341c" stroke="#4a341c" stroke-width="5" stroke-linejoin="miter" d="M 0 128.90897830711884   m -33.33317971724384 0   a 70 70 0 0 0 66.66635943448767 0   a 98.33317971724384 98.33317971724384 0 0 0 -28.333179717243834 -3   l -5 2   l -5 -2   a 98.33317971724384 98.33317971724384 0 0 0 -28.333179717243834 3   a 70 70 0 0 0 66.66635943448767 0   "/>

</g>

</svg>