<svg viewBox="0 0 320 320" xmlns="http://www.w3.org/2000/svg">

<g transform="translate(160,120)">
  <!-- head -->
  <path fill="#e350f4" d="M -97.99180064816686 0   a 97.99180064816686 97.99180064816686 0 0 1 195.98360129633372 0   L 80.47288974991507 100   L 69.07449704085653 140   L 17.29999644542787 180   L -17.29999644542787 180   L -69.07449704085653 140   L -80.47288974991507 100   "/>

  <!-- eye -->
  <path fill="#4e2d5c" d="M 23.84695578007561 40   a 37.50592623304839 37.50592623304839 0 0 1 50 0   a 120 120 0 0 0 -50 0   "/>

  <!-- other eye -->
  <path fill="#4e2d5c" transform="scale(-1,1)" d="M 23.84695578007561 40   a 37.50592623304839 37.50592623304839 0 0 1 50 0   a 120 120 0 0 0 -50 0   "/>

  <!-- eye brow -->
  <path fill="none" stroke="#4e2d5c" stroke-width="5" stroke-linecap="round" stroke-linejoin="bevel" d="M 23.84695578007561 10.73781134833257   L 49.533333509608816 6.042015161448839   L 70 15.73781134833257   "/>

  <!-- other eye brow -->
  <path fill="none" stroke="#4e2d5c" stroke-width="5" transform="scale(-1,1)" stroke-linecap="round" stroke-linejoin="bevel" d="M 23.84695578007561 10.73781134833257   L 49.533333509608816 5.777070551861714   L 70 15.73781134833257   "/>

  <!-- nose -->
  <path fill="none" stroke="#4e2d5c" stroke-width="5" d="M 0 101.16992155557334   m -5 -5   a 6 6 0 0 0 10 0   m -5 0   a 15 15 0 0 0 20 -2   m -20 2   a 15 15 0 0 1 -20 -2   "/>

  <!-- mouth -->
  <path fill="#4e2d5c" stroke="#4e2d5c" stroke-width="5" stroke-linejoin="miter" d="M 0 128.19010485928038   m -26.42341027542979 0   a 70 70 0 0 0 52.84682055085958 0   a 91.42341027542979 91.42341027542979 0 0 0 -21.42341027542979 -3   l -5 2   l -5 -2   a 91.42341027542979 91.42341027542979 0 0 0 -21.42341027542979 3   a 70 70 0 0 0 52.84682055085958 0   "/>

</g>

</svg>